<svg width="125" height="24" viewBox="0 0 125 24" fill="none" xmlns="http://www.w3.org/2000/svg">
<path fill-rule="evenodd" clip-rule="evenodd" d="M79.5659 17.4389C73.9964 13.3403 73.1271 13.6675 62.127 24C72.4594 12.9999 72.7866 12.1339 68.688 6.56108C74.2575 10.6597 75.1268 10.3325 86.1269 0C75.7945 11.0001 75.4673 11.8661 79.5659 17.4389ZM121.269 17.3761C120.655 17.3761 120.182 17.2076 119.851 16.8704C119.521 16.5333 119.356 16.0705 119.356 15.4855V8.14436H116.123V6.62722H119.356V2.80295H121.091V6.62722H124.608V8.14436H121.091V15.2244C121.091 15.664 121.303 15.8854 121.729 15.8854H124.125V17.3795H121.266L121.269 17.3761ZM20.6021 4.04579V16.2887H22.8662V4.04579H20.6021ZM44.1162 16.0407V13.6906L47.4446 12.428L44.1162 11.1654V8.81529L50.6012 11.2315H50.6177V13.6477H50.6012L44.1162 16.0506V16.044V16.0407ZM41.3298 5.49013L37.5154 17.7331H39.7796L43.5939 5.49013H41.3298ZM6.50489 11.1555V8.80544L0.0132216 11.2183H0V13.6312H0.0132216L6.50489 16.0474V13.694L3.17642 12.4248L6.50489 11.1588V11.1555ZM18.2125 11.0728C18.2489 10.1176 17.9117 9.1822 17.2672 8.47486L17.2705 8.47816C16.6227 7.80387 15.7203 7.43698 14.7849 7.47664C13.7834 7.43368 12.8116 7.80388 12.0911 8.50461V7.73116H9.8269V16.292H12.0911V12.5007C12.0911 10.5308 12.7984 9.54909 14.2164 9.54909C14.699 9.52926 15.1617 9.73089 15.4757 10.0978C15.8062 10.5076 15.9748 11.0299 15.9484 11.5554V16.2887H18.2125V11.0728ZM33.0404 16.2886H34.9244L38.1008 7.71132H35.6813L33.8997 12.8577L32.062 7.71132H30.2969L28.4592 12.8412L26.6776 7.71132H24.2581L27.4312 16.2886H29.3186L31.1894 11.248L33.0404 16.2886ZM61.3637 17.6835C60.2796 17.6835 59.3276 17.4522 58.5046 16.9894C57.6849 16.5267 57.0469 15.8788 56.5908 15.0426C56.138 14.2063 55.9099 13.2412 55.9099 12.1405V11.8761C55.9099 10.7622 56.138 9.78712 56.5908 8.95087C57.0436 8.11462 57.675 7.46677 58.4815 7.00403C59.288 6.54128 60.2101 6.30991 61.2513 6.30991C62.2925 6.30991 63.1552 6.52476 63.9319 6.95776C64.7087 7.39076 65.3169 8.00885 65.7565 8.81535C66.1961 9.62185 66.4175 10.5672 66.4175 11.6513V12.4413H57.6452C57.6882 13.5982 58.0617 14.5038 58.7657 15.155C59.4698 15.8061 60.349 16.1333 61.4034 16.1333C62.3256 16.1333 63.0362 15.9218 63.5353 15.4954C64.0344 15.069 64.4145 14.5633 64.6789 13.9783L66.173 14.7021C65.9515 15.155 65.6474 15.6111 65.2607 16.0639C64.8707 16.5168 64.3682 16.9002 63.7435 17.2076C63.1188 17.515 62.3256 17.6703 61.3571 17.6703L61.3637 17.6835ZM57.6717 11.0233H64.6624C64.6029 10.0284 64.2625 9.25166 63.6411 8.69306C63.0164 8.13776 62.2231 7.8568 61.2546 7.8568C60.2862 7.8568 59.4664 8.13445 58.8351 8.69306C58.2038 9.25166 57.8171 10.0284 57.6683 11.0233H57.6717ZM82.6003 6.62732V21.7723L82.6037 21.7756H84.339V15.6872H84.6463C84.8215 16.0111 85.0694 16.3252 85.3933 16.6325C85.7173 16.9399 86.137 17.1912 86.6593 17.3895C87.1782 17.5878 87.8128 17.6869 88.5599 17.6869C89.4986 17.6869 90.3546 17.4655 91.1215 17.0259C91.8883 16.5863 92.5031 15.9483 92.9559 15.1121C93.4088 14.2758 93.6368 13.2875 93.6368 12.1439V11.8597C93.6368 10.7028 93.4055 9.71118 92.9427 8.89146C92.48 8.07174 91.8652 7.43712 91.095 6.9909C90.3249 6.54468 89.4787 6.31992 88.5565 6.31992C87.4426 6.31992 86.5733 6.53146 85.9519 6.95785C85.3272 7.38424 84.8777 7.86681 84.6001 8.40889H84.2927V6.62732H82.6003ZM90.8108 15.0757C90.1167 15.7897 89.211 16.1434 88.0971 16.1434C86.9997 16.1434 86.0941 15.7864 85.3834 15.0757C84.6728 14.3651 84.3158 13.3735 84.3158 12.0976V11.8993C84.3158 10.6235 84.6728 9.63185 85.3834 8.92121C86.0941 8.21056 86.9832 7.85359 88.0971 7.85359C89.211 7.85359 90.1134 8.21056 90.8108 8.92121C91.5082 9.63185 91.8553 10.6235 91.8553 11.8993V12.0976C91.8553 13.3735 91.5049 14.3651 90.8108 15.0757ZM101.173 17.6835C100.089 17.6835 99.1372 17.4522 98.3142 16.9894C97.4944 16.5267 96.8565 15.8788 96.4004 15.0426C95.9475 14.2063 95.7195 13.2412 95.7195 12.1405V11.8761C95.7195 10.7622 95.9475 9.78712 96.4004 8.95087C96.8532 8.11462 97.4845 7.46677 98.291 7.00403C99.0975 6.54128 100.02 6.30991 101.061 6.30991C102.102 6.30991 102.965 6.52476 103.742 6.95776C104.518 7.39076 105.126 8.00885 105.566 8.81535C106.006 9.62185 106.227 10.5672 106.227 11.6513V12.4413H97.4548C97.4977 13.5982 97.8712 14.5038 98.5753 15.155C99.2793 15.8061 100.159 16.1333 101.213 16.1333C102.135 16.1333 102.846 15.9218 103.345 15.4954C103.844 15.069 104.224 14.5633 104.489 13.9783L105.983 14.7021C105.761 15.155 105.457 15.6111 105.07 16.0639C104.68 16.5168 104.178 16.9002 103.553 17.2076C102.928 17.515 102.135 17.6703 101.167 17.6703L101.173 17.6835ZM97.4812 11.0233H104.472C104.412 10.0284 104.072 9.25166 103.451 8.69306C102.826 8.13776 102.033 7.8568 101.064 7.8568C100.096 7.8568 99.276 8.13445 98.6447 8.69306C98.0134 9.25166 97.6267 10.0284 97.4779 11.0233H97.4812ZM108.785 6.6273V17.3762H110.52V10.8251C110.52 9.9161 110.758 9.24512 111.234 8.81212C111.71 8.37912 112.338 8.16428 113.115 8.16428H114.5V6.58102H113.224C112.58 6.58102 112.061 6.6901 111.664 6.91156C111.267 7.13301 110.977 7.47677 110.785 7.94613H110.477V6.6273H108.785Z" fill="url(#paint0_linear_116_422)"/>
<defs>
<linearGradient id="paint0_linear_116_422" x1="121.5" y1="11.2414" x2="-0.87457" y2="11.4715" gradientUnits="userSpaceOnUse">
<stop stop-color="#859398"/>
<stop offset="0.39918" stop-color="#D1F593"/>
<stop offset="1" stop-color="#859398"/>
</linearGradient>
</defs>
</svg>
