<svg width="333" height="72" viewBox="0 0 333 72" fill="none" xmlns="http://www.w3.org/2000/svg">
<path fill-rule="evenodd" clip-rule="evenodd" d="M212.175 50.5038C197.323 39.5742 195.005 40.4468 165.672 68C193.225 38.6663 194.097 36.357 183.168 21.4962C198.02 32.4258 200.338 31.5532 229.672 4C202.118 33.3337 201.246 35.643 212.175 50.5038ZM323.384 50.3348C321.745 50.3348 320.484 49.8853 319.603 48.9863C318.722 48.0872 318.281 46.8532 318.281 45.2931V25.7167H309.661V21.671H318.281V11.473H322.908V21.671H332.287V25.7167H322.908V44.5968C322.908 45.7691 323.472 46.3596 324.609 46.3596H331V50.3437H323.375L323.384 50.3348ZM54.9388 14.7869V47.4348H60.9765V14.7869H54.9388ZM117.643 46.7752V40.5084L126.519 37.1413L117.643 33.7743V27.5074L134.936 33.9506H134.98V40.3938H134.936L117.643 46.8017V46.7841V46.7752ZM110.212 18.6403L100.041 51.2881H106.078L116.25 18.6403H110.212ZM17.3464 33.7491V27.4823L0.0352576 33.9166H0V40.351H0.0352576L17.3464 46.7942V40.5185L8.47046 37.1338L17.3464 33.758V33.7491ZM48.5671 33.5288C48.6641 30.9815 47.765 28.4871 46.0462 26.6009L46.055 26.6097C44.3275 24.8116 41.9212 23.8332 39.4268 23.939C36.7561 23.8244 34.1647 24.8116 32.2432 26.6802V24.6177H26.2054V47.4465H32.2432V37.3366C32.2432 32.0833 34.1294 29.4655 37.9107 29.4655C39.1976 29.4126 40.4316 29.9503 41.2689 30.9287C42.1504 32.0216 42.5999 33.4143 42.5294 34.8157V47.4377H48.5671V33.5288ZM88.1075 47.4376H93.1316L101.602 24.5648H95.15L90.3992 38.2885L85.4985 24.5648H80.7917L75.891 38.2444L71.1401 24.5648H64.6881L73.1497 47.4376H78.1827L83.1715 33.996L88.1075 47.4376ZM163.636 51.1533C160.745 51.1533 158.206 50.5363 156.011 49.3023C153.825 48.0683 152.124 46.3407 150.908 44.1107C149.7 41.8807 149.092 39.307 149.092 36.3718V35.6667C149.092 32.6963 149.7 30.0961 150.908 27.8661C152.116 25.6361 153.799 23.9085 155.95 22.6746C158.1 21.4406 160.56 20.8236 163.336 20.8236C166.113 20.8236 168.413 21.3965 170.484 22.5512C172.556 23.7058 174.178 25.3541 175.35 27.5048C176.522 29.6554 177.113 32.1763 177.113 35.0673V37.1739H153.72C153.834 40.2589 154.83 42.674 156.708 44.4104C158.585 46.1468 160.93 47.0194 163.741 47.0194C166.201 47.0194 168.096 46.4553 169.427 45.3183C170.758 44.1812 171.771 42.8327 172.476 41.2725L176.46 43.2029C175.87 44.4104 175.059 45.6268 174.028 46.8343C172.988 48.0419 171.648 49.0643 169.982 49.884C168.316 50.7037 166.201 51.118 163.618 51.118L163.636 51.1533ZM153.79 33.3926H172.432C172.274 30.7396 171.366 28.6682 169.709 27.1786C168.043 25.6978 165.927 24.9486 163.345 24.9486C160.762 24.9486 158.576 25.689 156.893 27.1786C155.209 28.6682 154.178 30.7396 153.781 33.3926H153.79ZM220.266 21.6718V62.0585L220.275 62.0673H224.903V45.8315H225.722C226.19 46.6953 226.851 47.5327 227.714 48.3524C228.578 49.1721 229.698 49.842 231.09 50.3709C232.474 50.8997 234.166 51.1641 236.158 51.1641C238.662 51.1641 240.945 50.5736 242.989 49.4013C245.034 48.229 246.674 46.5279 247.881 44.2979C249.089 42.0679 249.697 39.4324 249.697 36.3827V35.6247C249.697 32.5397 249.08 29.8954 247.846 27.7095C246.612 25.5236 244.973 23.8313 242.919 22.6413C240.865 21.4514 238.609 20.8521 236.15 20.8521C233.179 20.8521 230.861 21.4162 229.204 22.5532C227.538 23.6902 226.339 24.9771 225.599 26.4226H224.779V21.6718H220.266ZM242.161 44.2009C240.31 46.1048 237.895 47.0479 234.924 47.0479C231.998 47.0479 229.583 46.096 227.688 44.2009C225.793 42.3059 224.841 39.6616 224.841 36.2593V35.7304C224.841 32.3282 225.793 29.6839 227.688 27.7888C229.583 25.8938 231.954 24.9419 234.924 24.9419C237.895 24.9419 240.301 25.8938 242.161 27.7888C244.021 29.6839 244.946 32.3282 244.946 35.7304V36.2593C244.946 39.6616 244.012 42.3059 242.161 44.2009ZM269.794 51.1533C266.903 51.1533 264.365 50.5363 262.17 49.3023C259.984 48.0683 258.283 46.3407 257.066 44.1107C255.859 41.8807 255.251 39.307 255.251 36.3718V35.6667C255.251 32.6963 255.859 30.0961 257.066 27.8661C258.274 25.6361 259.957 23.9085 262.108 22.6746C264.259 21.4406 266.718 20.8236 269.494 20.8236C272.271 20.8236 274.571 21.3965 276.643 22.5512C278.714 23.7058 280.336 25.3541 281.508 27.5048C282.681 29.6554 283.271 32.1763 283.271 35.0673V37.1739H259.878C259.993 40.2589 260.989 42.674 262.866 44.4104C264.744 46.1468 267.088 47.0194 269.9 47.0194C272.359 47.0194 274.254 46.4553 275.585 45.3183C276.916 44.1812 277.93 42.8327 278.635 41.2725L282.619 43.2029C282.028 44.4104 281.217 45.6268 280.186 46.8343C279.146 48.0419 277.806 49.0643 276.14 49.884C274.474 50.7037 272.359 51.118 269.777 51.118L269.794 51.1533ZM259.949 33.3926H278.591C278.432 30.7396 277.524 28.6682 275.867 27.1786C274.201 25.6978 272.086 24.9486 269.503 24.9486C266.921 24.9486 264.735 25.689 263.051 27.1786C261.368 28.6682 260.337 30.7396 259.94 33.3926H259.949ZM290.093 21.6713V50.3351H294.72V32.8653C294.72 30.4414 295.355 28.6521 296.624 27.4974C297.893 26.3428 299.568 25.7699 301.639 25.7699H305.332V21.5479H301.93C300.211 21.5479 298.828 21.8387 297.77 22.4293C296.712 23.0198 295.936 23.9365 295.425 25.1881H294.605V21.6713H290.093Z" fill="url(#paint0_linear_8120_249)"/>
<defs>
<linearGradient id="paint0_linear_8120_249" x1="323.999" y1="33.9771" x2="-2.33218" y2="34.5907" gradientUnits="userSpaceOnUse">
<stop stop-color="#859398"/>
<stop offset="0.39918" stop-color="#D1F593"/>
<stop offset="1" stop-color="#859398"/>
</linearGradient>
</defs>
</svg>
